<svg xmlns="http://www.w3.org/2000/svg" width="512" height="512" style=""><rect id="backgroundrect" width="100%" height="100%" x="0" y="0" fill="none" stroke="none"/><g class="currentLayer" style=""><title>Layer 1</title><path d="M505.05 19.1a15.89 15.89 0 0 0-12.2-12.2C460.65 0 435.46 0 410.36 0c-103.2 0-165.1 55.2-211.29 128H94.87A48 48 0 0 0 52 154.49l-49.42 98.8A24 24 0 0 0 24.07 288h103.77l-22.47 22.47a32 32 0 0 0 0 45.25l50.9 50.91a32 32 0 0 0 45.26 0L224 384.16V488a24 24 0 0 0 34.7 21.49l98.7-49.39a47.91 47.91 0 0 0 26.5-42.9V312.79c72.59-46.3 128-108.4 128-211.09.1-25.2.1-50.4-6.85-82.6zM384 168a40 40 0 1 1 40-40 40 40 0 0 1-40 40z" id="svg_1" class="selected" fill="#ffffff" fill-opacity="1"/></g></svg>